<?xml version="1.0" encoding="UTF-8"?>
<svg xmlns="http://www.w3.org/2000/svg"
     width="126.0mm" height="66.0mm"
     viewBox="0 0 126.0 66.0">
  <rect x="0" y="0" width="126.0" height="66.0" fill="#0A0A0A"/>
  <g fill="none" stroke="#BDFF00" stroke-width="1.6"
     stroke-linecap="square" stroke-linejoin="miter">
    <path d="M 8.000 17.000 L 8.000 8.000 L 17.000 8.000"/>
<path d="M 109.000 8.000 L 118.000 8.000 L 118.000 17.000"/>
<path d="M 8.000 49.000 L 8.000 58.000 L 17.000 58.000"/>
<path d="M 109.000 58.000 L 118.000 58.000 L 118.000 49.000"/>
  </g>
  <g transform="translate(47.3876,29.0752) scale(0.002610,-0.002610)"><path d="M673 903H454V0H210V903H45V1082H210V1185Q210 1366 312.0 1461.5Q414 1557 590 1557Q657 1557 727 1539L721 1349Q679 1357 627 1357Q456 1357 454 1189V1082H673Z" fill="#FAFAFA"/></g>
<g transform="translate(50.2429,29.0752) scale(0.002610,-0.002610)"><path d="M80 551Q80 786 213.0 944.0Q346 1102 582 1102Q817 1102 949.5 948.0Q1082 794 1086 564V530Q1086 294 953.5 137.0Q821 -20 584 -20Q346 -20 213.0 137.0Q80 294 80 530ZM322 530Q322 384 384.5 279.5Q447 175 584 175Q718 175 780.5 279.5Q843 384 843 530V551Q843 694 780.5 800.5Q718 907 582 907Q447 907 384.5 800.5Q322 694 322 551Z" fill="#FAFAFA"/></g>
<g transform="translate(54.2464,29.0752) scale(0.002610,-0.002610)"><path d="M383 1536V0H140V1536Z" fill="#FAFAFA"/></g>
<g transform="translate(56.5745,29.0752) scale(0.002610,-0.002610)"><path d="M383 1536V0H140V1536Z" fill="#FAFAFA"/></g>
<g transform="translate(58.9025,29.0752) scale(0.002610,-0.002610)"><path d="M80 551Q80 786 213.0 944.0Q346 1102 582 1102Q817 1102 949.5 948.0Q1082 794 1086 564V530Q1086 294 953.5 137.0Q821 -20 584 -20Q346 -20 213.0 137.0Q80 294 80 530ZM322 530Q322 384 384.5 279.5Q447 175 584 175Q718 175 780.5 279.5Q843 384 843 530V551Q843 694 780.5 800.5Q718 907 582 907Q447 907 384.5 800.5Q322 694 322 551Z" fill="#FAFAFA"/></g>
<g transform="translate(62.9060,29.0752) scale(0.002610,-0.002610)"><path d="M1485 1082 1189 0H989L757 742L529 0H330L34 1082H271L446 344L667 1082H851L1076 334L1248 1082Z" fill="#FAFAFA"/></g>
<g transform="translate(67.8387,29.0752) scale(0.002610,-0.002610)"><path d="" fill="#FAFAFA"/></g>
<g transform="translate(70.1302,29.0752) scale(0.002610,-0.002610)"><path d="M575 904Q428 904 367 784V0H125V1082H353L360 969Q475 1102 673 1102Q888 1102 969 937Q1088 1102 1302 1102Q1467 1102 1562.0 1010.0Q1657 918 1658 706V0H1415V702Q1415 822 1362.5 863.0Q1310 904 1220 904Q1137 904 1084.5 859.0Q1032 814 1012 742V0H769V700Q769 814 717.0 859.0Q665 904 575 904Z" fill="#FAFAFA"/></g>
<g transform="translate(75.7441,29.0752) scale(0.002610,-0.002610)"><path d="M1018 184Q966 108 864.5 44.0Q763 -20 601 -20Q360 -20 222.0 130.0Q84 280 84 503V544Q84 800 225.5 951.0Q367 1102 573 1102Q809 1102 922.5 952.0Q1036 802 1036 568V465H329Q339 340 413.5 257.5Q488 175 616 175Q783 175 887 309ZM573 907Q473 907 412.0 837.0Q351 767 333 643H795V661Q790 756 742.0 831.5Q694 907 573 907Z" fill="#FAFAFA"/></g>
  <g transform="translate(22.1500,40.7248) scale(0.006078,-0.006078)"><path d="M1263 -364Q1193 -409 1088.0 -431.0Q983 -453 890 -453Q485 -453 268.0 -222.5Q51 8 67 458Q79 732 191.5 947.0Q304 1162 500.5 1286.0Q697 1410 963 1410Q1358 1410 1564.0 1171.5Q1770 933 1754 550Q1749 408 1701.5 277.5Q1654 147 1556.5 63.0Q1459 -21 1303 -21Q1134 -21 1060 116Q963 -17 798 -17Q653 -17 568.0 106.5Q483 230 503 436Q533 689 665.5 839.5Q798 990 986 990Q1105 990 1172.0 956.5Q1239 923 1301 880L1251 293Q1241 210 1274.0 182.0Q1307 154 1347 154Q1433 154 1490.0 265.0Q1547 376 1552 540Q1568 853 1423.0 1045.5Q1278 1238 959 1238Q757 1238 610.0 1135.5Q463 1033 380.0 856.5Q297 680 286 458Q269 98 430.0 -82.5Q591 -263 894 -263Q981 -263 1071.5 -244.0Q1162 -225 1225 -198ZM753 436Q733 173 876 173Q907 173 951.0 203.5Q995 234 1029 335L1068 791Q1037 799 1005 799Q886 799 829.0 705.5Q772 612 753 436Z" fill="#FAFAFA"/></g>
<g transform="translate(33.0539,40.7248) scale(0.006078,-0.006078)"><path d="M462 494V0H111V1456H692Q954 1456 1105.0 1316.0Q1256 1176 1256 962Q1256 750 1105.0 622.0Q954 494 692 494ZM462 1185V765H692Q802 765 851.5 820.0Q901 875 901 960Q901 1049 851.5 1117.0Q802 1185 692 1185Z" fill="#FAFAFA"/></g>
<g transform="translate(40.9188,40.7248) scale(0.006078,-0.006078)"><path d="M-4 0 531 1456H862L1400 0H1022L938 272H457L373 0ZM541 543H854L697 1050Z" fill="#FAFAFA"/></g>
<g transform="translate(49.1544,40.7248) scale(0.006078,-0.006078)"><path d="M37 1185V1456H1254V1185H816V0H465V1185Z" fill="#FAFAFA"/></g>
<g transform="translate(56.7640,40.7248) scale(0.006078,-0.006078)"><path d="M908 0 651 514H462V0H111V1456H684Q936 1456 1085.5 1343.5Q1235 1231 1235 1016Q1235 848 1165.5 752.0Q1096 656 981 602L1284 15V0ZM462 1185V785H684Q884 785 884 984Q884 1182 690 1185Z" fill="#FAFAFA"/></g>
<g transform="translate(64.6411,40.7248) scale(0.006078,-0.006078)"><path d="M484 1456V0H134V1456Z" fill="#FAFAFA"/></g>
<g transform="translate(68.1602,40.7248) scale(0.006078,-0.006078)"><path d="M916 0 606 541 462 384V0H111V1456H462V814L584 999L898 1456H1331L840 813L1331 0Z" fill="#FAFAFA"/></g>
<g transform="translate(75.8792,40.7248) scale(0.006078,-0.006078)"><path d="M117.0 158.0Q117 230 168.5 278.5Q220 327 303.0 327.0Q386 327 437.5 278.5Q489 230 489.0 158.0Q489 86 437.5 37.5Q386 -11 303.0 -11.0Q220 -11 168.5 37.5Q117 86 117.0 158.0Z" fill="#FAFAFA"/></g>
<g transform="translate(79.4044,40.7248) scale(0.006078,-0.006078)"><path d="M462 494V0H111V1456H692Q954 1456 1105.0 1316.0Q1256 1176 1256 962Q1256 750 1105.0 622.0Q954 494 692 494ZM462 1185V765H692Q802 765 851.5 820.0Q901 875 901 960Q901 1049 851.5 1117.0Q802 1185 692 1185Z" fill="#FAFAFA"/></g>
<g transform="translate(87.2693,40.7248) scale(0.006078,-0.006078)"><path d="M1343 698Q1343 364 1165.0 172.0Q987 -20 708 -20Q427 -20 248.5 172.0Q70 364 70 698V757Q70 1091 247.5 1283.5Q425 1476 706 1476Q985 1476 1164.0 1283.5Q1343 1091 1343 757ZM987 759Q987 979 917.0 1090.0Q847 1201 706 1201Q444 1201 428 811L427 698Q427 484 497.5 369.0Q568 254 708 254Q841 254 913.5 367.5Q986 481 987 692Z" fill="#FAFAFA"/></g>
<g transform="translate(95.6204,40.7248) scale(0.006078,-0.006078)"><path d="M1358 1456 867 0H484L-4 1456H387L676 394L965 1456Z" fill="#FAFAFA"/></g>
</svg>