<?xml version="1.0" encoding="UTF-8"?>
<!-- Generator: visioncortex VTracer 0.6.12 -->
<svg xmlns="http://www.w3.org/2000/svg" viewBox="0 0 675 426">
<path d="M0,0 L54,0 L83,4 L93,6 L102,8 L103,9 L117,12 L146,22 L170,33 L187,42 L206,54 L224,67 L238,79 L248,88 L266,106 L275,117 L286,131 L300,152 L312,173 L323,196 L333,223 L341,253 L346,283 L348,308 L348,335 L346,360 L341,390 L339,395 L-288,395 L-290,390 L-295,360 L-297,335 L-297,308 L-295,283 L-290,253 L-282,223 L-272,196 L-258,167 L-246,147 L-232,127 L-223,116 L-211,102 L-190,81 L-179,72 L-165,61 L-144,47 L-132,40 L-129,40 L-129,38 L-121,34 L-117,34 L-117,32 L-113,32 L-113,30 L-109,30 L-109,28 L-104,26 L-99,26 L-99,24 L-89,21 L-82,18 L-76,16 L-71,16 L-71,14 L-66,12 L-59,11 L-58,10 L-49,9 L-48,8 L-39,7 L-38,6 L-31,5 L-30,4 L-19,3 L-18,2 L-1,1 Z M12,22 L-20,25 L-48,30 L-70,36 L-90,43 L-113,53 L-135,65 L-150,75 L-162,84 L-173,93 L-188,107 L-197,116 L-204,124 L-216,138 L-229,157 L-238,171 L-248,188 L-258,210 L-266,231 L-271,246 L-278,280 L-281,305 L-281,342 L-279,367 L-274,362 L-211,299 L-203,292 L-171,260 L-163,253 L-114,204 L-106,197 L-96,186 L-91,179 L-87,181 L-85,184 L-81,183 L-68,171 L-53,156 L-45,149 L-37,141 L-29,134 L-11,116 L-3,109 L5,101 L13,94 L13,92 L17,90 L22,85 L29,77 L33,79 L40,87 L68,115 L76,122 L101,147 L109,154 L117,162 L125,169 L142,185 L152,195 L160,202 L163,203 L163,205 L171,212 L178,219 L186,226 L243,283 L245,283 L247,287 L259,298 L312,351 L315,355 L317,355 L319,359 L327,366 L330,369 L332,362 L334,347 L335,334 L335,313 L332,286 L328,262 L320,234 L314,218 L303,194 L290,169 L280,154 L268,138 L257,125 L250,117 L234,100 L224,91 L208,79 L187,65 L165,53 L148,45 L124,36 L107,31 L77,25 L58,23 L42,22 Z M30,113 L20,121 L7,133 L-8,147 L-24,162 L-34,172 L-42,179 L-64,201 L-62,206 L-37,231 L-35,231 L-33,235 L-21,247 L-16,252 L-1,267 L6,275 L18,287 L23,292 L31,300 L33,303 L35,303 L37,307 L45,315 L52,323 L70,341 L77,349 L103,375 L111,382 L115,386 L130,386 L178,385 L299,385 L311,384 L306,379 L303,376 L301,376 L299,372 L259,332 L251,325 L247,320 L239,313 L228,302 L220,295 L207,284 L195,277 L191,277 L193,283 L199,298 L208,319 L213,330 L202,318 L189,302 L180,290 L170,276 L164,265 L162,265 L152,278 L146,288 L145,291 L138,275 L125,246 L110,218 L105,209 L104,209 L106,241 L104,234 L98,234 L87,241 L69,254 L63,258 L55,265 L47,271 L43,273 L49,264 L48,268 L51,267 L54,257 L58,251 L62,250 L62,248 L64,248 L65,250 L69,230 L68,226 L66,226 L66,228 L64,228 L67,222 L67,220 L69,219 L74,206 L81,185 L88,166 L87,163 L68,177 L57,186 L47,195 L31,207 L17,218 L4,228 L-1,231 L3,222 L8,210 L15,189 L28,137 L31,117 Z M-97,219 L-165,287 L-173,294 L-262,383 L-264,385 L58,385 L75,387 L76,385 L69,377 L60,367 L55,362 L43,350 L41,351 L42,356 L38,357 L38,359 L29,357 L17,348 L6,340 L0,338 L-6,338 L-6,344 L2,348 L3,354 L1,354 L1,358 L-1,358 L-2,360 L-7,360 L-14,344 L-26,319 L-31,312 L-32,314 L-32,334 L-36,328 L-38,326 L-43,327 L-54,336 L-61,343 L-75,352 L-80,354 L-73,332 L-67,313 L-61,296 L-51,270 L-49,254 L-51,254 L-51,256 L-55,258 L-65,267 L-79,278 L-94,292 L-109,305 L-120,314 L-129,322 L-118,292 L-106,256 L-98,228 L-96,219 Z M68,221 L69,223 Z M69,225 Z M45,271 Z " fill="#BDFF00" transform="translate(312,16)"/>
</svg>
