<?xml version="1.0" encoding="UTF-8"?>
<!-- Generator: visioncortex VTracer 0.6.12 -->
<svg xmlns="http://www.w3.org/2000/svg" viewBox="0 0 1280 344">
<path d="M0,0 L42,0 L44,3 L66,4 L68,7 L86,8 L88,11 L98,12 L100,15 L110,16 L112,19 L122,20 L124,23 L131,25 L132,27 L139,29 L140,31 L147,33 L148,35 L155,37 L160,43 L167,45 L172,51 L179,53 L184,59 L191,65 L192,67 L199,69 L204,75 L211,81 L212,87 L219,89 L220,95 L227,101 L232,107 L235,109 L236,115 L243,121 L244,127 L247,129 L248,135 L255,141 L256,147 L259,149 L260,155 L263,157 L264,167 L267,169 L268,175 L271,177 L272,191 L275,193 L276,203 L279,205 L280,219 L283,221 L284,263 L287,265 L287,271 L284,273 L283,311 L280,313 L279,324 L-241,324 L-242,321 L-245,319 L-246,297 L-249,295 L-249,241 L-246,239 L-245,213 L-242,211 L-241,197 L-238,195 L-237,185 L-234,183 L-233,173 L-230,171 L-228,164 L-226,163 L-225,153 L-222,151 L-220,144 L-214,139 L-212,132 L-210,131 L-208,124 L-202,119 L-200,112 L-194,107 L-190,103 L-188,96 L-182,91 L-176,84 L-170,79 L-164,72 L-158,67 L-152,60 L-146,59 L-140,52 L-136,48 L-130,47 L-124,40 L-118,39 L-116,36 L-110,35 L-104,28 L-94,27 L-92,24 L-86,23 L-84,20 L-74,19 L-72,16 L-62,15 L-60,12 L-50,11 L-48,8 L-30,7 L-28,4 L-2,3 Z M-16,20 L-18,23 L-40,24 L-42,27 L-56,28 L-58,31 L-68,32 L-70,35 L-77,37 L-78,39 L-88,40 L-90,43 L-97,45 L-98,47 L-105,49 L-106,51 L-113,53 L-118,59 L-125,61 L-130,67 L-137,69 L-142,75 L-149,81 L-154,87 L-161,93 L-166,99 L-173,105 L-178,111 L-181,113 L-182,119 L-189,125 L-193,129 L-194,135 L-197,137 L-198,143 L-205,149 L-206,155 L-209,157 L-210,163 L-213,165 L-214,171 L-217,173 L-218,183 L-221,185 L-222,195 L-225,197 L-226,207 L-229,209 L-230,227 L-233,229 L-233,304 L-229,303 L-228,300 L-225,299 L-220,293 L-217,291 L-216,285 L-209,279 L-204,273 L-197,271 L-192,265 L-185,259 L-184,253 L-177,251 L-172,245 L-165,239 L-160,233 L-153,227 L-148,221 L-141,215 L-136,209 L-129,203 L-124,197 L-117,191 L-112,185 L-105,179 L-100,173 L-93,167 L-88,161 L-81,155 L-81,148 L-77,150 L-76,152 L-70,152 L-68,149 L-61,147 L-60,141 L-56,137 L-49,135 L-44,129 L-37,123 L-32,117 L-25,111 L-20,105 L-13,99 L-8,93 L-1,87 L4,81 L11,75 L16,69 L20,65 L23,66 L28,72 L34,77 L40,84 L46,89 L52,96 L58,101 L64,108 L70,113 L76,120 L82,125 L88,132 L94,133 L100,140 L106,145 L112,152 L118,157 L124,164 L130,169 L136,176 L142,181 L148,188 L154,193 L160,200 L166,205 L172,212 L178,217 L184,224 L190,229 L192,232 L198,233 L204,240 L210,245 L216,252 L222,257 L228,264 L234,269 L240,276 L246,281 L252,288 L258,293 L264,300 L266,300 L268,304 L271,304 L272,281 L275,279 L275,257 L272,255 L271,229 L268,227 L267,209 L264,207 L263,193 L260,191 L258,184 L256,183 L254,176 L252,175 L250,168 L248,167 L247,157 L240,151 L238,144 L236,143 L234,136 L228,131 L226,124 L220,119 L216,115 L214,108 L208,103 L202,96 L196,91 L190,84 L184,79 L178,72 L172,71 L166,64 L162,60 L156,59 L154,56 L148,55 L142,48 L136,47 L134,44 L128,43 L126,40 L116,39 L114,36 L108,35 L106,32 L96,31 L94,28 L80,27 L78,24 L56,23 L54,20 Z M20,96 L18,100 L15,101 L10,107 L3,109 L-2,115 L-9,121 L-14,127 L-21,133 L-26,139 L-33,145 L-38,151 L-45,157 L-50,163 L-57,169 L-56,172 L-50,177 L-44,184 L-38,189 L-32,196 L-26,201 L-20,208 L-14,213 L-8,220 L-2,225 L4,232 L10,237 L16,244 L22,249 L28,256 L34,261 L40,268 L46,273 L52,280 L58,285 L64,292 L70,297 L76,304 L82,309 L88,316 L92,320 L250,320 L251,316 L247,315 L246,312 L240,307 L234,300 L228,295 L222,288 L216,283 L210,276 L204,271 L198,264 L192,259 L186,252 L180,247 L174,240 L170,236 L164,235 L162,232 L156,232 L156,236 L158,237 L160,244 L162,245 L163,255 L166,257 L168,264 L170,265 L170,271 L167,270 L162,264 L160,263 L158,256 L152,251 L148,247 L146,240 L140,235 L138,228 L134,224 L128,224 L123,229 L122,235 L118,239 L115,238 L112,235 L110,228 L108,227 L107,217 L104,215 L102,208 L100,207 L98,200 L96,199 L94,192 L92,191 L90,184 L88,183 L87,176 L83,177 L83,187 L86,188 L86,195 L76,196 L74,199 L67,201 L62,207 L58,211 L52,212 L50,215 L48,215 L48,209 L51,207 L52,189 L55,187 L56,177 L59,175 L60,161 L63,159 L64,153 L67,151 L67,141 L71,140 L71,136 L67,136 L66,140 L62,142 L62,144 L56,144 L50,151 L43,157 L38,163 L31,165 L26,171 L22,175 L15,177 L10,183 L3,189 L2,191 L-4,191 L-4,189 L-1,187 L0,181 L3,179 L4,169 L7,167 L8,161 L11,159 L12,145 L15,143 L16,129 L19,127 L20,105 L23,103 L23,97 Z M-85,184 L-86,188 L-90,190 L-90,192 L-93,193 L-98,199 L-105,205 L-110,211 L-117,217 L-122,223 L-129,229 L-134,235 L-141,241 L-146,247 L-153,253 L-158,259 L-165,265 L-170,271 L-177,277 L-182,283 L-189,289 L-194,295 L-201,301 L-206,307 L-210,311 L-217,313 L-217,315 L-221,316 L-220,320 L58,320 L59,316 L55,315 L54,312 L48,307 L42,300 L36,295 L30,288 L20,288 L18,291 L12,291 L6,284 L0,283 L-2,280 L-8,280 L-9,281 L-9,287 L-6,289 L-6,295 L-12,295 L-14,288 L-16,287 L-18,280 L-20,279 L-21,269 L-24,268 L-26,264 L-29,264 L-29,276 L-33,274 L-34,272 L-40,272 L-46,279 L-53,285 L-58,291 L-64,292 L-66,295 L-69,296 L-68,285 L-65,283 L-64,273 L-61,271 L-60,261 L-57,259 L-56,249 L-53,247 L-52,241 L-49,239 L-48,229 L-45,227 L-45,212 L-49,213 L-50,216 L-53,217 L-58,223 L-65,229 L-70,235 L-77,241 L-78,243 L-85,245 L-90,251 L-97,257 L-102,263 L-106,267 L-108,267 L-108,261 L-105,259 L-104,249 L-101,247 L-100,237 L-97,235 L-96,225 L-93,223 L-92,213 L-89,211 L-88,201 L-85,199 L-85,189 L-81,188 L-81,184 Z " fill="#FAFAFA" transform="translate(289,20)"/>
<path d="M0,0 L598,0 L600,3 L638,4 L639,5 L639,187 L638,188 L-36,188 L-37,187 L-37,5 L-36,4 L-2,3 Z M0,32 L-1,33 L-1,159 L0,160 L30,160 L31,159 L32,117 L36,113 L58,112 L60,109 L67,107 L71,103 L72,97 L79,91 L79,57 L76,55 L74,48 L68,43 L62,36 L56,35 L54,32 Z M112,32 L110,35 L103,37 L98,43 L91,49 L90,63 L87,65 L87,127 L90,129 L91,143 L98,149 L104,156 L110,157 L112,160 L146,160 L148,157 L155,155 L160,149 L167,143 L168,133 L171,131 L171,61 L168,59 L167,49 L160,43 L154,36 L148,35 L146,32 Z M180,32 L179,33 L179,159 L180,160 L254,160 L255,159 L255,133 L254,132 L216,131 L215,33 L214,32 Z M292,32 L287,37 L286,55 L283,57 L282,71 L279,73 L278,91 L275,93 L274,107 L271,109 L270,127 L267,129 L266,147 L263,149 L263,159 L264,160 L294,160 L299,155 L300,145 L318,145 L319,159 L320,160 L354,160 L355,159 L355,153 L352,151 L351,133 L348,131 L347,113 L344,111 L343,93 L340,91 L339,73 L336,71 L335,53 L332,51 L331,37 L326,32 Z M368,32 L363,37 L363,155 L368,160 L398,160 L399,159 L399,119 L400,117 L403,116 L403,123 L406,125 L407,143 L410,145 L411,159 L412,160 L446,160 L447,159 L447,149 L444,147 L443,137 L440,135 L439,121 L436,119 L435,109 L431,108 L433,104 L439,99 L443,95 L444,85 L447,83 L447,61 L444,59 L443,49 L436,43 L430,36 L424,35 L422,32 Z M476,32 L474,35 L467,37 L463,41 L462,47 L459,49 L459,71 L460,72 L474,72 L475,71 L476,53 L483,47 L484,45 L494,45 L500,52 L502,53 L502,75 L499,77 L498,83 L495,85 L494,91 L491,93 L490,99 L483,105 L482,111 L475,117 L474,123 L467,129 L466,135 L459,141 L459,159 L460,160 L522,160 L523,159 L523,145 L522,144 L479,144 L481,140 L487,135 L488,129 L495,123 L496,117 L503,111 L507,107 L508,101 L511,99 L512,93 L515,91 L516,85 L519,83 L519,49 L516,47 L514,40 L508,35 L506,32 Z M556,32 L554,35 L547,37 L543,41 L542,47 L539,49 L539,139 L542,141 L544,148 L546,149 L548,156 L554,157 L556,160 L586,160 L592,153 L599,147 L600,133 L603,131 L603,113 L600,111 L599,97 L596,95 L594,88 L588,83 L586,80 L556,79 L556,57 L559,55 L560,49 L567,47 L568,45 L574,45 L580,52 L582,53 L583,67 L584,68 L598,68 L599,67 L599,49 L596,47 L594,40 L588,35 L586,32 Z " fill="#FAFAFA" transform="translate(629,148)"/>
<path d="M0,0 L6,0 L12,7 L15,9 L15,19 L10,24 L0,24 L-1,23 L-1,1 Z " fill="#FAFAFA" transform="translate(661,208)"/>
<path d="M0,0 L10,0 L11,1 L11,71 L10,72 L0,72 L-1,71 L-1,1 Z " fill="#FAFAFA" transform="translate(753,208)"/>
<path d="M0,0 L6,0 L11,5 L11,23 L10,24 L0,24 L-1,23 L-1,1 Z " fill="#FAFAFA" transform="translate(1029,208)"/>
<path d="M0,0 L4,1 L5,4 L5,23 L8,25 L8,31 L7,32 L-3,32 L-4,31 L-4,9 L-1,7 Z " fill="#FAFAFA" transform="translate(936,232)"/>
<path d="M0,0 L10,0 L16,7 L19,9 L19,47 L12,53 L10,56 L0,56 L-5,51 L-6,45 L-9,43 L-9,13 L-6,11 L-4,4 Z " fill="#FAFAFA" transform="translate(1193,240)"/>
</svg>
